<svg id="Layer_1" data-name="Layer 1" xmlns="http://www.w3.org/2000/svg" viewBox="0 0 22 22"><title>Icons</title><path d="M20.25,3.13a5.89,5.89,0,0,0-4.4-1.92,5.52,5.52,0,0,0-3.45,1.2A7,7,0,0,0,11,3.87,7,7,0,0,0,9.6,2.41a5.52,5.52,0,0,0-3.45-1.2,5.89,5.89,0,0,0-4.4,1.92A6.86,6.86,0,0,0,0,7.83a8.19,8.19,0,0,0,2.18,5.36,47.57,47.57,0,0,0,5.46,5.12c.76.65,1.62,1.38,2.51,2.16a1.29,1.29,0,0,0,1.7,0c.89-.78,1.75-1.51,2.51-2.16a47.57,47.57,0,0,0,5.46-5.12A8.19,8.19,0,0,0,22,7.83,6.86,6.86,0,0,0,20.25,3.13Z"/></svg>