<svg id="Layer_1" data-name="Layer 1" xmlns="http://www.w3.org/2000/svg" viewBox="0 0 22 22"><title>Icons</title><path d="M20,4.47a.65.65,0,0,1,.56.16.67.67,0,0,1,.25.49v8.47a.64.64,0,0,1-.32.56.79.79,0,0,1-.67.06A5.69,5.69,0,0,0,18,13.89c-2.19,0-4,1.27-4,2.86s1.78,2.87,4,2.87,4-1.27,4-2.87V2.45A2.29,2.29,0,0,0,19.41.18L8.76,1.59a2.31,2.31,0,0,0-2,2.28V15.81a.63.63,0,0,1-.32.55.86.86,0,0,1-.68.07A5.32,5.32,0,0,0,4,16.1c-2.2,0-4,1.27-4,2.87s1.77,2.87,4,2.87,4-1.27,4-2.87V6.62A.64.64,0,0,1,8.54,6Z"/></svg>