<svg id="Layer_1" data-name="Layer 1" xmlns="http://www.w3.org/2000/svg" viewBox="0 0 20 20"><title>Visibility.on</title><path d="M9.85,6.83,12.71,9.7V9.55A2.72,2.72,0,0,0,10,6.82Z"/><path d="M10,5a4.53,4.53,0,0,1,4.22,6.2l2.66,2.66A10.78,10.78,0,0,0,20,9.55,10.76,10.76,0,0,0,10,2.73a10.6,10.6,0,0,0-3.62.64l2,2A4.54,4.54,0,0,1,10,5Z"/><path d="M.91,2.52,3,4.6,3.39,5A10.81,10.81,0,0,0,0,9.55a10.74,10.74,0,0,0,10,6.81,10.53,10.53,0,0,0,4-.77l.39.39L17,18.63l1.16-1.15L2.07,1.37Zm5,5L7.34,9a3,3,0,0,0-.07.6A2.72,2.72,0,0,0,10,12.27a2.88,2.88,0,0,0,.59-.07L12,13.61a4.43,4.43,0,0,1-2,.48A4.55,4.55,0,0,1,5.45,9.55,4.48,4.48,0,0,1,5.94,7.55Z"/></svg>