<svg id="Layer_1" data-name="Layer 1" xmlns="http://www.w3.org/2000/svg" viewBox="0 0 22 22"><title>Visibility.on</title><path d="M10.83,7.52,14,10.67l0-.17a3,3,0,0,0-3-3Z"/><path d="M11,5.5a5,5,0,0,1,5,5,4.76,4.76,0,0,1-.36,1.82l2.93,2.93A11.82,11.82,0,0,0,22,10.5,11.8,11.8,0,0,0,7,3.7L9.17,5.86A5.06,5.06,0,0,1,11,5.5Z"/><path d="M1,2.78,3.28,5.06l.45.45A11.86,11.86,0,0,0,0,10.5,11.83,11.83,0,0,0,11,18a11.59,11.59,0,0,0,4.38-.85l.43.43,2.91,2.92L20,19.23,2.27,1.5ZM6.53,8.3,8.07,9.85A3.5,3.5,0,0,0,8,10.5a3,3,0,0,0,3,3,2.82,2.82,0,0,0,.65-.08L13.19,15A4.88,4.88,0,0,1,11,15.5,5,5,0,0,1,6.53,8.3Z"/></svg>