<svg id="Layer_1" data-name="Layer 1" xmlns="http://www.w3.org/2000/svg" viewBox="0 0 20 20"><title>Visibility.on</title><path d="M9.85,7.28l2.86,2.86V10A2.73,2.73,0,0,0,10,7.26Z"/><path d="M10,5.45a4.53,4.53,0,0,1,4.22,6.2l2.66,2.66A10.88,10.88,0,0,0,20,10,10.76,10.76,0,0,0,10,3.17a10.6,10.6,0,0,0-3.62.64l2,2A4.54,4.54,0,0,1,10,5.45Z"/><path d="M.91,3,3,5l.41.42A10.84,10.84,0,0,0,0,10a10.73,10.73,0,0,0,14,6l.39.39L17,19.08l1.16-1.16L2.07,1.81Zm5,5L7.34,9.4a2.88,2.88,0,0,0-.07.59A2.73,2.73,0,0,0,10,12.72a2.88,2.88,0,0,0,.59-.07l1.4,1.4a4.43,4.43,0,0,1-2,.48A4.5,4.5,0,0,1,5.94,8Z"/></svg>